<svg width="32" height="32" viewBox="0 0 32 32" xmlns="http://www.w3.org/2000/svg">
  <!-- Background with modern gradient -->
  <rect width="32" height="32" rx="6" fill="url(#yellowGradient)"/>
  
  <!-- QR Code inspired pattern -->
  <g fill="#0070f3">
    <!-- Main corner squares (QR code signature) -->
    <rect x="3" y="3" width="6" height="6" rx="1"/>
    <rect x="4" y="4" width="4" height="4" fill="url(#yellowGradient)"/>
    <rect x="5" y="5" width="2" height="2" fill="#0070f3"/>
    
    <rect x="23" y="3" width="6" height="6" rx="1"/>
    <rect x="24" y="4" width="4" height="4" fill="url(#yellowGradient)"/>
    <rect x="25" y="5" width="2" height="2" fill="#0070f3"/>
    
    <rect x="3" y="23" width="6" height="6" rx="1"/>
    <rect x="4" y="24" width="4" height="4" fill="url(#yellowGradient)"/>
    <rect x="5" y="25" width="2" height="2" fill="#0070f3"/>
    
    <!-- Center focus square -->
    <rect x="13" y="13" width="6" height="6" rx="1"/>
    <rect x="14" y="14" width="4" height="4" fill="url(#yellowGradient)"/>
    <rect x="15" y="15" width="2" height="2" fill="url(#blueGradient)"/>
    
    <!-- QR pattern dots -->
    <circle cx="11" cy="6" r="0.8"/>
    <circle cx="13" cy="6" r="0.8"/>
    <circle cx="15" cy="6" r="0.8"/>
    <circle cx="17" cy="6" r="0.8"/>
    <circle cx="19" cy="6" r="0.8"/>
    <circle cx="21" cy="6" r="0.8"/>
    
    <circle cx="6" cy="11" r="0.8"/>
    <circle cx="6" cy="13" r="0.8"/>
    <circle cx="6" cy="15" r="0.8"/>
    <circle cx="6" cy="17" r="0.8"/>
    <circle cx="6" cy="19" r="0.8"/>
    <circle cx="6" cy="21" r="0.8"/>
    
    <circle cx="26" cy="11" r="0.8"/>
    <circle cx="26" cy="13" r="0.8"/>
    <circle cx="26" cy="15" r="0.8"/>
    <circle cx="26" cy="17" r="0.8"/>
    <circle cx="26" cy="19" r="0.8"/>
    <circle cx="26" cy="21" r="0.8"/>
    
    <circle cx="11" cy="26" r="0.8"/>
    <circle cx="13" cy="26" r="0.8"/>
    <circle cx="15" cy="26" r="0.8"/>
    <circle cx="17" cy="26" r="0.8"/>
    <circle cx="19" cy="26" r="0.8"/>
    <circle cx="21" cy="26" r="0.8"/>
    
    <!-- Additional pattern elements -->
    <circle cx="11" cy="11" r="0.6"/>
    <circle cx="21" cy="11" r="0.6"/>
    <circle cx="11" cy="21" r="0.6"/>
    
    <!-- Link symbol integration -->
    <circle cx="21" cy="21" r="1.2" fill="none" stroke="#0070f3" stroke-width="0.8" opacity="0.9"/>
    <circle cx="23.5" cy="21" r="1.2" fill="none" stroke="#0070f3" stroke-width="0.8" opacity="0.9"/>
    <rect x="22.2" y="20.6" width="0.6" height="0.8" fill="#0070f3" opacity="0.9"/>
    
    <!-- Modern accent dots -->
    <circle cx="10" cy="16" r="0.4" fill="#0070f3" opacity="0.8"/>
    <circle cx="16" cy="10" r="0.4" fill="#0070f3" opacity="0.8"/>
    <circle cx="22" cy="16" r="0.4" fill="#0070f3" opacity="0.8"/>
    <circle cx="16" cy="22" r="0.4" fill="#0070f3" opacity="0.8"/>
  </g>
  
  <!-- Gradient definitions -->
  <defs>
    <linearGradient id="yellowGradient" x1="0%" y1="0%" x2="100%" y2="100%">
      <stop offset="0%" stop-color="#FFD600"/>
      <stop offset="50%" stop-color="#FFC107"/>
      <stop offset="100%" stop-color="#FF8F00"/>
    </linearGradient>
    
    <linearGradient id="blueGradient" x1="0%" y1="0%" x2="100%" y2="100%">
      <stop offset="0%" stop-color="#0070f3"/>
      <stop offset="100%" stop-color="#0055bf"/>
    </linearGradient>
    
    <!-- Subtle shadow filter -->
    <filter id="shadow" x="-20%" y="-20%" width="140%" height="140%">
      <feDropShadow dx="1" dy="1" stdDeviation="1" flood-color="rgba(0,0,0,0.2)"/>
    </filter>
  </defs>
</svg>