<svg xmlns="http://www.w3.org/2000/svg" viewBox="0 0 32 32">
  <!-- Background -->
  <rect width="32" height="32" fill="#faf9f6" rx="6"/>
  
  <!-- QR code inspired design with link symbol -->
  <!-- Top left corner -->
  <rect x="4" y="4" width="3" height="3" fill="#000000"/>
  <rect x="4" y="8" width="3" height="3" fill="#000000"/>
  <rect x="8" y="4" width="3" height="3" fill="#000000"/>
  
  <!-- Top right corner -->
  <rect x="21" y="4" width="3" height="3" fill="#000000"/>
  <rect x="25" y="4" width="3" height="3" fill="#000000"/>
  <rect x="25" y="8" width="3" height="3" fill="#000000"/>
  
  <!-- Bottom left corner -->
  <rect x="4" y="21" width="3" height="3" fill="#000000"/>
  <rect x="4" y="25" width="3" height="3" fill="#000000"/>
  <rect x="8" y="25" width="3" height="3" fill="#000000"/>
  
  <!-- Center link chain symbol in blue -->
  <path d="M19 12h-2a2 2 0 0 0-2 2v2a2 2 0 0 0 2 2h2a2 2 0 0 0 2-2v-2a2 2 0 0 0-2-2z" fill="#0070f3"/>
  <path d="M13 14h-2a2 2 0 0 0-2 2v2a2 2 0 0 0 2 2h2a2 2 0 0 0 2-2v-2a2 2 0 0 0-2-2z" fill="#0070f3"/>
  <rect x="14" y="16.5" width="4" height="1" fill="#0070f3"/>
  
  <!-- Bottom right accent pixels -->
  <rect x="21" y="25" width="3" height="3" fill="#0070f3"/>
  <rect x="25" y="21" width="3" height="3" fill="#0070f3"/>
</svg>